<?xml version="1.0" standalone="no"?>
<!DOCTYPE svg PUBLIC "-//W3C//DTD SVG 20010904//EN"
 "http://www.w3.org/TR/2001/REC-SVG-20010904/DTD/svg10.dtd">
<svg version="1.0" xmlns="http://www.w3.org/2000/svg"
 width="1073.000000pt" height="704.000000pt" viewBox="0 0 1073.000000 704.000000"
 preserveAspectRatio="xMidYMid meet">

<g transform="translate(0.000000,704.000000) scale(0.100000,-0.100000)"
fill="#000000" stroke="none">
<path d="M0 3520 l0 -3520 5365 0 5365 0 0 3520 0 3520 -5365 0 -5365 0 0
-3520z m1376 2289 c227 -40 432 -174 559 -365 47 -70 101 -196 122 -284 22
-89 22 -284 0 -373 -66 -267 -233 -471 -481 -588 l-86 -40 0 -209 0 -210 -43
0 -44 0 -6 182 c-4 99 -7 242 -7 316 l0 134 -47 -6 c-91 -13 -82 20 -85 -319
l-3 -302 -45 0 -45 0 -3 1038 -2 1037 78 0 c43 0 105 -5 138 -11z m1222 -5
c268 -55 504 -252 611 -509 51 -121 64 -199 58 -355 -3 -119 -8 -146 -37 -232
-27 -82 -82 -190 -131 -259 -9 -12 16 -82 126 -345 76 -181 140 -337 143 -346
4 -15 -3 -18 -46 -18 l-50 0 -31 73 c-16 39 -84 200 -150 356 l-120 285 38 45
c177 212 217 552 94 796 -106 209 -309 369 -521 410 l-32 7 19 -49 c37 -94 39
-96 124 -137 157 -74 288 -236 332 -411 19 -77 19 -211 -1 -289 -38 -149 -142
-294 -270 -377 l-64 -42 0 -69 0 -68 38 15 c20 9 59 29 86 46 27 16 50 28 51
27 2 -3 240 -573 253 -606 3 -10 -8 -12 -49 -10 l-53 3 -72 170 c-132 312
-124 296 -148 289 -11 -4 -40 -15 -63 -25 l-43 -18 0 -211 0 -211 -47 3 -48 3
-5 515 -5 515 -36 80 c-20 44 -47 103 -60 130 l-24 50 -5 -645 -5 -645 -47 -3
-48 -3 0 903 1 903 35 -80 c19 -44 107 -251 196 -460 88 -209 165 -389 171
-400 9 -18 13 -16 54 30 23 27 43 57 43 65 0 9 -101 257 -225 550 -124 294
-228 542 -231 552 -5 16 2 18 56 18 33 0 95 -7 138 -16z m1616 -20 c126 -50
244 -191 274 -329 8 -33 12 -265 14 -685 3 -635 3 -635 -19 -701 -71 -208
-235 -324 -458 -323 -103 0 -173 19 -250 69 -101 64 -171 165 -200 287 -22 94
-22 1253 0 1347 41 171 179 316 340 358 81 21 217 10 299 -23z m1331 -56 c3
-51 5 -419 3 -818 l-3 -725 -24 -48 c-70 -142 -228 -200 -364 -133 -60 29 -95
64 -130 130 -20 38 -22 57 -25 264 l-3 222 50 0 51 0 0 -202 c0 -176 3 -208
19 -244 26 -58 72 -87 142 -92 70 -5 128 23 162 78 l22 35 3 813 3 812 43 0
44 0 7 -92z m232 -730 c-3 -754 -5 -828 -21 -882 -63 -211 -224 -346 -441
-371 -223 -24 -464 141 -529 364 -13 43 -16 103 -16 283 l0 228 50 0 50 0 0
-223 c0 -254 7 -290 67 -377 46 -65 118 -122 193 -152 77 -31 212 -30 293 1
70 28 162 109 200 179 57 104 57 106 57 975 l0 797 50 0 51 0 -4 -822z m1143
777 l0 -45 -357 -2 -358 -3 -3 -392 -2 -393 65 0 65 0 0 325 0 325 295 0 295
0 0 -45 0 -45 -222 0 c-123 0 -233 -3 -245 -6 l-23 -6 0 -274 0 -274 246 0
245 0 -3 -47 -3 -48 -357 -3 -358 -2 0 -385 0 -385 65 0 65 0 0 320 0 320 295
0 295 0 0 -45 0 -45 -214 0 c-117 0 -228 -3 -245 -6 l-31 -6 0 -269 0 -269
245 0 245 0 0 -50 0 -50 -245 0 -245 0 0 -65 0 -65 245 0 245 0 0 -50 0 -50
-407 2 -408 3 -3 1038 -2 1037 410 0 410 0 0 -45z m1130 -5 l0 -50 -43 0 c-59
0 -183 -33 -249 -66 -280 -141 -464 -448 -485 -809 -16 -301 77 -567 272 -774
115 -122 258 -197 423 -222 l82 -12 0 -44 0 -43 -52 0 c-64 0 -183 29 -261 64
-125 55 -282 188 -365 308 -218 316 -260 765 -107 1121 146 341 438 567 743
576 l42 1 0 -50z m1188 3 l-3 -48 -172 -3 -173 -2 0 -65 0 -65 173 -2 172 -3
3 -42 3 -43 -160 0 c-87 0 -166 -3 -175 -6 -14 -6 -16 -90 -16 -849 0 -463 -3
-857 -6 -874 -6 -31 -8 -32 -53 -29 l-46 3 -3 871 -2 872 -34 6 c-19 4 -46 4
-59 1 -21 -6 -25 -14 -31 -58 -3 -29 -6 -422 -6 -874 l0 -823 -44 0 -43 0 -7
46 c-3 26 -6 419 -6 874 0 746 -2 828 -16 834 -9 3 -85 6 -170 6 l-154 0 0 45
0 45 285 0 285 0 0 65 0 65 -285 0 -285 0 0 50 0 50 516 0 515 0 -3 -47z
m-1188 -233 c0 -48 -1 -50 -29 -50 -51 0 -157 -39 -220 -81 -115 -77 -199
-193 -250 -345 -74 -220 -59 -459 42 -664 85 -174 278 -320 424 -320 l33 0 0
-50 c0 -46 -2 -50 -24 -50 -57 0 -137 23 -216 61 -196 97 -349 324 -390 581
-20 122 -8 322 25 433 85 287 293 493 530 525 33 4 63 8 68 9 4 0 7 -21 7 -49z
m-4480 -2380 c20 -36 133 -242 250 -458 117 -216 219 -400 226 -410 11 -14 13
3 14 112 l0 130 -185 341 c-102 188 -185 345 -185 349 0 4 24 6 52 4 l52 -3
123 -224 c68 -124 127 -229 133 -235 7 -7 10 68 10 227 l0 237 50 0 50 0 0
-1034 0 -1034 -30 -7 c-16 -4 -39 -4 -50 0 -20 6 -20 13 -20 452 l0 446 -122
226 c-66 124 -134 246 -149 271 l-29 45 0 -716 0 -717 -25 -6 c-14 -4 -36 -4
-50 0 l-25 6 0 816 0 815 -51 96 c-28 53 -58 105 -65 116 -12 17 -14 -115 -14
-897 0 -504 -3 -923 -6 -932 -4 -11 -19 -16 -50 -16 l-44 0 0 1036 0 1035 52
-3 52 -3 36 -65z m820 -964 l0 -1033 -29 -6 c-15 -3 -38 -3 -50 0 l-21 5 0
1027 c0 565 3 1031 7 1034 3 4 26 7 50 7 l43 0 0 -1034z m919 1023 c166 -38
314 -193 350 -367 7 -35 11 -260 11 -670 0 -679 0 -678 -62 -793 -38 -73 -121
-152 -192 -185 -265 -121 -554 -14 -658 244 l-23 57 -3 660 c-2 635 -2 662 17
725 36 118 134 240 234 291 86 45 227 61 326 38z m791 -923 c0 -514 4 -937 8
-940 4 -2 66 109 136 247 71 139 149 290 174 335 l45 84 66 -126 66 -127 3
130 3 130 -67 125 c-36 69 -69 126 -73 126 -3 0 -51 -85 -105 -189 -54 -104
-104 -198 -112 -208 -11 -15 -13 81 -14 665 l0 682 45 0 45 0 1 -387 c1 -214
4 -430 8 -482 l6 -94 59 142 c32 78 62 144 66 146 4 3 36 -65 71 -151 l64
-156 6 268 c4 148 7 369 8 492 l1 222 45 0 45 0 0 -836 0 -836 57 -111 c50
-94 59 -107 64 -86 4 13 7 439 8 947 l1 922 45 0 45 0 0 -1034 0 -1034 -40 -7
c-21 -4 -48 -4 -58 -1 -12 4 -77 120 -189 337 l-171 331 -45 -84 c-24 -45
-100 -191 -167 -323 -67 -132 -127 -246 -133 -253 -10 -13 -48 -16 -84 -6
l-23 6 0 1034 0 1034 45 0 45 0 0 -934z"/>
<path d="M1260 5090 l0 -630 28 0 c15 0 44 5 65 11 l37 10 0 493 c0 506 3 586
25 586 7 0 49 -18 94 -41 149 -74 272 -229 315 -395 18 -71 21 -209 5 -286 -6
-29 -29 -90 -50 -136 -47 -98 -144 -206 -228 -256 l-56 -32 -3 -73 c-3 -72 -3
-73 20 -66 120 37 305 204 375 340 198 384 59 828 -319 1025 -82 43 -207 80
-270 80 l-38 0 0 -630z"/>
<path d="M1490 4975 c0 -365 2 -435 14 -435 23 0 118 92 158 154 91 141 105
335 35 497 -34 78 -162 219 -199 219 -4 0 -8 -196 -8 -435z"/>
<path d="M2690 5393 c0 -18 212 -528 224 -540 13 -14 20 11 24 90 5 94 -13
179 -54 265 -29 59 -115 157 -163 185 -30 18 -31 18 -31 0z"/>
<path d="M3940 5714 c-30 -8 -73 -25 -95 -39 -51 -29 -127 -110 -153 -161 -41
-80 -43 -131 -40 -774 l3 -615 23 -57 c31 -76 108 -160 180 -195 52 -26 66
-28 172 -28 103 0 121 3 170 26 70 33 141 103 177 177 l28 57 3 649 c3 716 4
705 -59 800 -86 130 -265 200 -409 160z m207 -152 c62 -32 120 -104 133 -165
8 -36 10 -235 8 -652 -3 -595 -3 -600 -25 -641 -26 -48 -82 -100 -132 -122
-50 -21 -146 -21 -203 1 -51 20 -112 80 -134 133 -12 27 -14 145 -14 661 0
589 2 631 19 668 31 67 82 110 161 136 42 14 142 3 187 -19z"/>
<path d="M3993 5490 c-45 -10 -80 -35 -103 -73 -19 -31 -20 -55 -20 -642 0
-591 1 -611 20 -643 59 -97 217 -96 276 1 18 31 19 59 19 642 0 559 -1 613
-17 642 -31 56 -108 88 -175 73z"/>
<path d="M6200 3905 l0 -65 65 0 65 0 0 65 0 65 -65 0 -65 0 0 -65z"/>
<path d="M5124 3130 c-109 -23 -218 -110 -270 -215 l-29 -60 0 -670 0 -670 22
-48 c32 -67 123 -160 186 -189 45 -20 68 -23 167 -23 106 0 120 2 172 28 72
35 149 119 180 195 l23 57 0 655 0 655 -33 67 c-78 158 -257 252 -418 218z
m199 -163 c25 -15 57 -41 72 -59 62 -73 60 -49 63 -686 2 -360 -1 -603 -7
-637 -43 -231 -363 -288 -476 -84 l-30 54 0 630 0 631 25 48 c28 55 79 101
136 122 60 22 162 13 217 -19z"/>
<path d="M5155 2901 c-45 -11 -74 -32 -98 -71 l-22 -35 0 -612 c0 -605 0 -612
21 -640 73 -98 214 -99 274 -1 20 32 20 48 18 655 l-3 622 -30 31 c-43 46
-103 65 -160 51z"/>
</g>
</svg>
